{"title":"Airplane-720p MP4 AAC x264 BRRip 1980-CC","uid":7521230,"size":2314164875,"categoryP":"video","categoryS":"hd___movies","magnet":"?xt=urn:btih:0a7357e2cc4322c5acf3d57ee4b91c3b3bd67645&amp;dn=Airplane-720p+MP4+AAC+x264+BRRip+1980-CC&amp;tr=udp%3A%2F%2Ftracker.openbittorrent.com%3A80&amp;tr=udp%3A%2F%2Fopen.demonii.com%3A1337&amp;tr=udp%3A%2F%2Ftracker.coppersurfer.tk%3A6969&amp;tr=udp%3A%2F%2Fexodus.desync.com%3A6969","seeders":4,"leechers":2,"uploader":"Caveman44","files":-1,"time":1344635314,"description":" &lt;a href=&quot;http://www.imdb.com/title/tt0080339/&quot; rel=&quot;nofollow&quot; target=&quot;_NEW&quot;&gt;http://www.imdb.com/title/tt0080339/&lt;/a&gt;\n\nSource: Airplane.1980.720p.BluRay.X264-AMIABLE Thanks!\n\nSubs: Danish, Dutch, English, French, Greek, Italian, Norwegian, Polish, Servian and Spanish.\n\nSample and Screens included.\n\nGeneral\nComplete name                    : Airplane-720p MP4 AAC x264 BRRip 1980-CC.mp4\nFormat                           : MPEG-4\nFormat profile                   : Base Media\nCodec ID                         : isom\nFile size                        : 2.13 GiB\nDuration                         : 1h 27mn\nOverall bit rate                 : 3 476 Kbps\nEncoded date                     : UTC 2012-07-30 14:32:25\n\nVideo\nID                               : 1\nFormat                           : AVC\nFormat/Info                      : Advanced Video Codec\nFormat profile                   : &lt;a class=&quot;__cf_email__&quot; href=&quot;/cdn-cgi/l/email-protection&quot; data-cfemail=&quot;e7af8e808fa7abd4c9d6&quot;&gt;[email&amp;#160;protected]&lt;/a&gt;&lt;script cf-hash='f9e31' type=&quot;text/javascript&quot;&gt;\n/* &lt;![CDATA[ */!function(){try{var t=&quot;currentScript&quot;in document?document.currentScript:function(){for(var t=document.getElementsByTagName(&quot;script&quot;),e=t.length;e--;)if(t[e].getAttribute(&quot;cf-hash&quot;))return t[e]}();if(t&amp;&amp;t.previousSibling){var e,r,n,i,c=t.previousSibling,a=c.getAttribute(&quot;data-cfemail&quot;);if(a){for(e=&quot;&quot;,r=parseInt(a.substr(0,2),16),n=2;a.length-n;n+=2)i=parseInt(a.substr(n,2),16)^r,e+=String.fromCharCode(i);e=document.createTextNode(e),c.parentNode.replaceChild(e,c)}}}catch(u){}}();/* ]]&gt; */&lt;/script&gt;\nFormat settings, CABAC           : Yes\nFormat settings, ReFrames        : 5 frames\nCodec ID                         : avc1\nCodec ID/Info                    : Advanced Video Coding\nDuration                         : 1h 27mn\nBit rate mode                    : Variable\nBit rate                         : 3 103 Kbps\nMaximum bit rate                 : 25.1 Mbps\nWidth                            : 1 280 pixels\nHeight                           : 720 pixels\nDisplay aspect ratio             : 16:9\nFrame rate mode                  : Variable\nFrame rate                       : 23.976 fps\nMinimum frame rate               : 23.256 fps\nMaximum frame rate               : 25.000 fps\nResolution                       : 24 bits\nColorimetry                      : 4:2:0\nScan type                        : Progressive\nBits/(Pixel*Frame)               : 0.140\nStream size                      : 1.89 GiB (89%)\nWriting library                  : x264 core 112\n\nAudio\nID                               : 2\nFormat                           : AAC\nFormat/Info                      : Advanced Audio Codec\nFormat version                   : Version 4\nFormat profile                   : LC\nFormat settings, SBR             : No\nCodec ID                         : 40\nDuration                         : 1h 27mn\nBit rate mode                    : Variable\nBit rate                         : 384 Kbps\nMaximum bit rate                 : 727 Kbps\nChannel(s)                       : 6 channels\nChannel positions                : Front: L C R, Rear: L R, LFE\nSampling rate                    : 48.0 KHz\nResolution                       : 16 bits\nStream size                      : 240 MiB (11%)\nLanguage                         : English\n\nEnjoy...\n\nRequested by aartje80 atThanks!","torrent":{"xt":"urn:btih:0a7357e2cc4322c5acf3d57ee4b91c3b3bd67645","amp;dn":"Airplane-720p+MP4+AAC+x264+BRRip+1980-CC","amp;tr":["udp%3A%2F%2Ftracker.openbittorrent.com%3A80","udp%3A%2F%2Fopen.demonii.com%3A1337","udp%3A%2F%2Ftracker.coppersurfer.tk%3A6969","udp%3A%2F%2Fexodus.desync.com%3A6969"],"infoHash":"0a7357e2cc4322c5acf3d57ee4b91c3b3bd67645","infoHashBuffer":{"type":"Buffer","data":[10,115,87,226,204,67,34,197,172,243,213,126,228,185,28,59,59,214,118,69]},"announce":[],"urlList":[]}}